<?xml version="1.0" encoding="UTF-8" standalone="no" ?>
<!DOCTYPE svg PUBLIC "-//W3C//DTD SVG 1.1//EN" "http://www.w3.org/Graphics/SVG/1.1/DTD/svg11.dtd">
<svg xmlns="http://www.w3.org/2000/svg" xmlns:xlink="http://www.w3.org/1999/xlink" version="1.1" width="1280" height="1024" viewBox="0 0 1280 1024" xml:space="preserve">
<desc>Created with Fabric.js 5.3.0</desc>
<defs>
</defs>
<g transform="matrix(1 0 0 1 640 512)" id="background-logo"  >
<rect style="stroke: none; stroke-width: 0; stroke-dasharray: none; stroke-linecap: butt; stroke-dashoffset: 0; stroke-linejoin: miter; stroke-miterlimit: 4; fill: rgb(255,255,255); fill-opacity: 0; fill-rule: nonzero; opacity: 1;"  paint-order="stroke"  x="-640" y="-512" rx="0" ry="0" width="1280" height="1024" />
</g>
<g transform="matrix(1.9211538461538462 0 0 1.9211538461538462 692.0693422264605 564.0306864615384)" id="text-logo"  >
<g style=""  paint-order="stroke"   >
		<g transform="matrix(1 0 0 1 0 0)" id="text-logo-path-0"  >
<path style="stroke: none; stroke-width: 1.5999999999999999; stroke-dasharray: none; stroke-linecap: butt; stroke-dashoffset: 0; stroke-linejoin: miter; stroke-miterlimit: 4; fill: rgb(0,0,0); fill-rule: nonzero; opacity: 1;"  paint-order="stroke"  transform=" translate(-238.75474827056328, 15.64)" d="M 89.9 -65.55 C 87.99 -72.35 84.46 -77.25 79.7 -79.97 C 75.21 -82.55 69.77 -83.37 63.38 -82.55 C 52.36 -81.06 39.03 -74.66 26.38 -64.87 C 16.86 -57.66 6.8 -47.33 6.8 -40.12 C 6.8 -33.05 17.41 -29.38 30.87 -24.89 C 45.97 -19.86 64.87 -13.6 64.87 -2.31 C 64.87 4.22 62.02 12.65 56.98 20.94 C 52.22 28.97 45.7 36.18 39.44 40.8 C 33.18 45.42 27.61 47.19 23.66 45.97 C 21.35 45.29 21.08 44.2 21.22 42.84 C 21.76 38.62 26.52 31.82 33.59 25.16 C 40.94 18.36 47.74 14.28 50.73 14.01 C 52.5 13.87 53.58 12.38 53.45 10.88 C 53.31 9.11 51.82 8.02 50.32 8.16 C 44.34 8.7 35.77 15.1 29.51 20.94 C 25.57 24.62 16.18 34.27 15.37 42.16 C 14.82 46.92 17.14 50.18 21.9 51.68 C 23.26 52.09 24.75 52.36 26.25 52.36 C 31.14 52.36 36.86 50.05 42.98 45.56 C 49.91 40.53 56.98 32.64 62.15 24.07 C 67.59 14.96 70.72 5.44 70.72 -2.31 C 70.72 -9.38 66.37 -15.37 57.39 -20.54 C 50.32 -24.62 40.94 -27.74 32.78 -30.46 C 27.06 -32.37 21.62 -34.27 17.68 -36.18 C 12.92 -38.49 12.78 -39.85 12.78 -40.12 C 12.78 -43.25 18.63 -51.54 29.92 -60.25 C 41.48 -69.09 54.54 -75.34 64.19 -76.57 C 75.07 -78.06 81.46 -73.71 84.05 -63.92 C 84.46 -62.42 86.22 -61.47 87.72 -61.88 C 89.35 -62.29 90.3 -63.92 89.9 -65.55 Z M 116.28 -15.78 C 114.92 -16.73 113.15 -16.46 112.2 -15.1 C 111.25 -13.87 109.48 -11.83 107.3 -12.24 C 105.81 -12.51 104.45 -13.6 103.22 -15.5 C 102.95 -17.82 102 -19.86 100.23 -20.81 C 99.69 -21.08 99.14 -21.22 98.46 -21.22 C 97.92 -22.03 97.1 -22.58 96.02 -22.58 C 92.62 -22.58 89.49 -20.13 87.31 -15.5 C 85.68 -11.97 84.59 -7.75 84.59 -4.35 C 84.59 -2.58 84.86 -1.09 85.41 0 C 86.22 1.9 87.86 2.99 89.76 2.99 C 93.16 2.99 96.15 1.63 98.6 -0.82 C 100.78 -2.99 101.86 -5.71 102.54 -7.75 C 103.77 -7.07 104.99 -6.53 106.35 -6.39 C 110.3 -5.71 114.24 -7.75 116.96 -11.7 C 117.91 -13.06 117.64 -14.82 116.28 -15.78 Z M 96.02 -7.21 C 94.66 -4.76 92.89 -3.26 90.58 -2.99 C 90.3 -4.9 90.85 -10.06 93.16 -14.01 C 94.25 -15.91 95.34 -16.73 96.02 -16.73 L 96.15 -16.73 L 97.38 -13.6 C 97.51 -11.97 97.1 -9.52 96.02 -7.21 Z M 147.15 -15.37 C 146.06 -16.59 144.16 -16.73 142.94 -15.5 C 142.8 -15.37 129.34 -2.99 116.01 -2.99 L 115.33 -2.99 C 115.19 -3.54 115.06 -6.39 118.18 -11.97 C 121.99 -18.63 127.02 -23.66 129.88 -24.48 C 129.61 -23.12 128.52 -20.67 127.43 -18.63 C 126.48 -17.14 127.02 -15.37 128.38 -14.55 C 129.88 -13.74 131.65 -14.14 132.46 -15.64 C 132.6 -15.64 133.69 -17.54 134.64 -19.86 C 136.14 -23.53 136.27 -26.25 135.18 -28.15 C 134.64 -29.1 133.42 -30.6 130.7 -30.6 C 124.85 -30.6 118.86 -23.39 116.55 -20.4 C 113.02 -15.64 109.34 -8.84 109.34 -3.81 C 109.34 -1.9 109.89 -0.27 110.98 0.95 C 111.79 1.9 113.29 2.99 116.01 2.99 C 131.65 2.99 146.34 -10.61 147.02 -11.29 C 148.24 -12.38 148.24 -14.28 147.15 -15.37 Z M 152.73 -27.06 C 153.27 -26.52 153.95 -26.38 154.63 -26.38 C 155.58 -26.38 156.4 -26.66 156.94 -27.34 C 157.49 -28.02 160.34 -31.55 161.16 -34.54 C 161.57 -36.04 160.75 -37.67 159.12 -38.08 C 157.49 -38.62 155.86 -37.67 155.45 -36.04 C 155.18 -34.82 153.41 -32.5 152.46 -31.28 C 151.37 -29.92 151.5 -28.15 152.73 -27.06 Z M 166.06 -15.64 C 164.7 -16.59 162.93 -16.32 161.84 -14.96 C 161.84 -14.96 159.8 -12.38 156.81 -9.66 C 153 -6.39 149.33 -4.62 146.47 -4.62 L 145.79 -4.62 C 145.66 -5.03 145.66 -6.8 147.7 -11.29 C 149.19 -14.42 151.1 -17.41 151.91 -18.5 C 152.86 -19.86 152.59 -21.76 151.23 -22.71 C 149.87 -23.66 148.1 -23.26 147.15 -22.03 C 146.06 -20.54 144.02 -17.27 142.26 -13.74 C 139.67 -8.3 139.13 -4.49 140.49 -1.77 C 141.17 -0.68 142.8 1.36 146.47 1.36 C 156.81 1.36 166.19 -10.88 166.6 -11.42 C 167.55 -12.78 167.42 -14.55 166.06 -15.64 Z M 196.79 -15.78 C 195.43 -16.73 193.66 -16.46 192.71 -15.1 C 184.96 -4.08 180.2 -1.36 177.75 -0.68 C 177.89 -1.9 178.3 -4.76 180.2 -10.2 L 183.06 -17.41 L 183.87 -19.31 C 184.28 -20.81 183.6 -22.44 182.1 -22.98 C 180.61 -23.53 178.98 -22.85 178.3 -21.35 L 177.62 -19.86 L 176.94 -18.63 C 175.98 -19.45 174.08 -21.08 171.36 -21.08 C 167.69 -21.08 163.88 -18.36 160.75 -13.6 C 158.03 -9.79 156.4 -5.17 156.4 -1.9 C 156.4 -0.54 156.81 0.82 157.35 1.77 C 158.3 2.99 159.8 3.81 161.43 3.81 C 164.29 3.81 167.82 1.63 172.04 -2.58 C 171.63 0.14 171.9 2.04 172.72 3.4 C 173.67 4.62 175.03 5.44 176.66 5.44 C 182.51 5.44 189.45 -0.14 197.61 -11.7 C 198.42 -13.06 198.15 -14.82 196.79 -15.78 Z M 170.68 -9.93 C 166.46 -5.17 163.74 -3.13 162.38 -2.45 C 162.52 -4.22 163.74 -7.75 166.06 -10.88 C 167.96 -13.46 170 -15.1 171.36 -15.1 C 171.9 -15.1 172.45 -14.69 172.86 -14.28 L 173.4 -13.46 C 172.58 -12.24 171.63 -11.15 170.68 -9.93 Z M 220.46 -85.27 C 218.96 -85.82 217.19 -85 216.65 -83.5 C 216.65 -83.23 206.86 -55.9 197.47 -28.42 C 192.03 -12.24 187.82 0.82 184.96 10.34 C 183.19 16.18 181.97 20.67 181.29 23.94 C 180.06 29.1 180.06 31.01 181.02 32.5 C 181.7 33.32 182.65 33.86 183.74 33.86 C 187.68 33.86 192.03 29.38 195.43 25.43 C 198.56 21.76 201.14 17.95 201.28 17.82 C 202.23 16.46 201.82 14.69 200.6 13.74 C 199.24 12.78 197.34 13.06 196.38 14.42 C 196.38 14.55 193.94 17.95 191.08 21.35 C 189.31 23.39 187.95 24.75 187 25.7 C 188.36 19.58 192.44 5.3 203.86 -28.7 C 212.98 -55.35 222.22 -81.19 222.22 -81.46 C 222.77 -82.96 222.09 -84.73 220.46 -85.27 Z M 347.48 -87.04 C 346.53 -88.4 345.3 -88.94 343.81 -88.94 C 340.82 -88.94 337.42 -86.9 332.79 -81.87 C 329.39 -78.2 325.45 -73.17 320.69 -66.23 C 312.39 -54.13 303.42 -38.9 296.75 -27.74 L 293.08 -21.76 L 293.49 -23.8 C 297.16 -43.25 298.11 -50.86 295.53 -53.99 C 294.71 -55.08 293.62 -55.49 292.54 -55.49 C 290.5 -55.49 287.78 -53.86 281.52 -46.24 C 277.85 -41.62 273.36 -35.77 267.92 -28.02 L 261.66 -19.04 L 271.05 -48.28 C 271.59 -49.91 270.78 -51.41 269.14 -51.95 C 267.51 -52.5 265.88 -51.68 265.34 -50.05 L 249.7 -0.95 C 249.29 0.41 249.83 2.04 251.19 2.72 C 252.55 3.26 254.18 2.86 255 1.63 C 255 1.63 263.16 -10.88 271.86 -23.26 C 283.15 -39.3 288.59 -45.56 291.04 -48.01 C 291.04 -46.65 290.9 -44.34 290.5 -41.07 C 289.82 -36.18 288.59 -29.92 287.64 -24.89 C 285.06 -11.56 284.92 -9.52 286.28 -7.89 C 286.82 -7.21 287.78 -6.8 288.73 -6.8 C 290.63 -6.8 291.86 -8.43 294.58 -12.78 L 301.78 -24.75 C 308.45 -35.9 317.29 -50.73 325.58 -62.83 C 330.21 -69.5 333.88 -74.26 337.14 -77.79 C 340.14 -81.06 342.18 -82.42 342.99 -82.82 C 343.13 -81.87 343.4 -79.7 343.13 -75.89 C 342.86 -71.67 342.04 -65.96 340.68 -58.75 C 338.37 -46.65 334.7 -30.87 329.66 -11.42 C 321.1 21.62 311.58 53.45 311.44 53.86 C 310.9 55.49 311.98 57.12 313.34 57.53 C 313.62 57.66 314.02 57.66 314.3 57.66 C 315.38 57.66 316.74 56.85 317.15 55.62 C 317.15 55.35 326.94 22.71 335.51 -10.47 C 340.68 -30.19 344.35 -46.1 346.66 -58.34 C 350.47 -79.29 349.25 -84.73 347.48 -87.04 Z M 378.76 -15.64 C 377.54 -16.73 375.63 -16.59 374.54 -15.37 C 374.54 -15.23 363.94 -2.99 352.38 -2.99 C 351.02 -2.99 349.66 -3.26 349.66 -6.26 C 349.79 -6.26 349.93 -6.12 350.06 -6.12 C 354.28 -5.03 358.5 -6.39 361.22 -9.66 C 363.8 -12.65 364.48 -16.59 363.12 -19.45 C 362.03 -21.76 359.72 -23.12 356.86 -23.12 C 353.33 -23.12 349.93 -21.08 347.21 -17.14 C 345.03 -13.87 343.67 -9.79 343.67 -6.26 C 343.67 -3.81 344.35 -1.5 345.71 0 C 346.8 1.36 348.84 2.99 352.38 2.99 C 366.66 2.99 378.62 -10.88 379.17 -11.42 C 380.26 -12.65 379.98 -14.55 378.76 -15.64 Z M 352.1 -13.74 C 353.6 -15.91 355.37 -17.27 356.86 -17.27 C 357.14 -17.27 357.68 -17.14 357.82 -17 C 358.09 -16.32 357.82 -14.82 356.73 -13.46 C 355.91 -12.51 354.28 -11.15 351.56 -11.83 C 351.42 -11.83 351.29 -11.97 351.02 -11.97 C 351.42 -12.51 351.7 -13.19 352.1 -13.74 Z M 408.14 -15.64 C 406.91 -16.73 405.01 -16.59 403.92 -15.37 C 403.92 -15.23 393.31 -2.99 381.75 -2.99 C 380.39 -2.99 379.03 -3.26 379.03 -6.26 C 379.17 -6.26 379.3 -6.12 379.44 -6.12 C 383.66 -5.03 387.87 -6.39 390.59 -9.66 C 393.18 -12.65 393.86 -16.59 392.5 -19.45 C 391.41 -21.76 389.1 -23.12 386.24 -23.12 C 382.7 -23.12 379.3 -21.08 376.58 -17.14 C 374.41 -13.87 373.05 -9.79 373.05 -6.26 C 373.05 -3.81 373.73 -1.5 375.09 0 C 376.18 1.36 378.22 2.99 381.75 2.99 C 396.03 2.99 408 -10.88 408.54 -11.42 C 409.63 -12.65 409.36 -14.55 408.14 -15.64 Z M 381.48 -13.74 C 382.98 -15.91 384.74 -17.27 386.24 -17.27 C 386.51 -17.27 387.06 -17.14 387.19 -17 C 387.46 -16.32 387.19 -14.82 386.1 -13.46 C 385.29 -12.51 383.66 -11.15 380.94 -11.83 C 380.8 -11.83 380.66 -11.97 380.39 -11.97 C 380.8 -12.51 381.07 -13.19 381.48 -13.74 Z M 467.98 -46.65 C 457.1 -47.87 441.73 -48.01 422.42 -47.46 C 425.54 -55.76 427.72 -60.93 427.72 -60.93 C 428.26 -62.42 427.58 -64.19 426.09 -64.87 C 424.59 -65.42 422.82 -64.74 422.14 -63.24 L 416.02 -47.19 C 401.47 -46.65 390.32 -45.83 390.18 -45.83 C 388.55 -45.7 387.33 -44.34 387.46 -42.7 C 387.6 -41.07 388.82 -39.85 390.46 -39.85 L 390.59 -39.85 C 390.86 -39.98 400.66 -40.66 413.71 -41.21 L 409.63 -29.65 C 403.38 -12.1 394.94 13.46 390.18 34.68 C 389.78 36.31 390.86 37.81 392.36 38.22 L 393.04 38.22 C 394.4 38.22 395.62 37.26 396.03 35.9 C 400.66 14.96 408.95 -10.2 415.21 -27.74 L 420.24 -41.48 C 435.74 -42.02 454.1 -42.16 467.43 -40.8 C 469.06 -40.66 470.56 -41.89 470.7 -43.52 C 470.83 -45.15 469.61 -46.51 467.98 -46.65 Z" stroke-linecap="round" />
</g>
</g>
</g>
</svg>